<svg version="1.0" xmlns="http://www.w3.org/2000/svg" width="160" height="160" viewBox="0 0 120 120"><path d="M38.3 48.7c-1.2.2-2.7 1.1-3.5 2-1.2 1.5-1.1 1.5.9.5 3-1.6 3.1-1.6 2.5 1.3-.3 2 .1 2.7 2.3 3.5 1.5.6 3.7.7 4.9.3 1.1-.4 2.4-.6 2.9-.5.4.1.7-1.2.7-2.9 0-2.7.2-3 1.5-1.9.9.7 1.5.8 1.5.2 0-2.2-7.7-3.7-13.7-2.5zm5.5 3.4c-.2.6-.8 1-1.3 1s-1.1-.4-1.3-1c-.2-.6.4-1.1 1.3-1.1s1.5.5 1.3 1.1zM70.8 49.1c-1.6.6-2.8 1.6-2.8 2.2 0 .8.4.7 1.2-.1 1.8-1.8 3-1.5 2.4.5-.3 1-.1 2.5.4 3.3.5.8 1 1.1 1 .6 0-.5.6-.3 1.4.3.8.7 2.7 1 4.3.8 2.2-.3 2.9-.9 3.1-3 .3-2.8 1.9-3.4 4-1.7.7.5.4.1-.6-1-2.2-2.4-10.3-3.5-14.4-1.9zM77 52c0 .5-.7 1-1.5 1s-1.5-.5-1.5-1c0-.6.7-1 1.5-1s1.5.4 1.5 1zM55 71c0 .5.5 1 1.1 1 .5 0 .7-.5.4-1-.3-.6-.8-1-1.1-1-.2 0-.4.4-.4 1zM63.5 71c-.3.5-.2 1 .4 1 .5 0 1.3-.5 1.6-1 .3-.6.2-1-.4-1-.5 0-1.3.4-1.6 1zM50.5 81c2.5 1.1 15.1 1.1 18.5 0 1.6-.5-1.8-.8-9-.8-7.3 0-10.8.3-9.5.8z"/></svg>